<?xml version="1.0" encoding="UTF-8"?>
<svg width="105px" height="29px" viewBox="0 0 105 29" version="1.1" xmlns="http://www.w3.org/2000/svg" xmlns:xlink="http://www.w3.org/1999/xlink">
    <!-- Generator: Sketch 52.1 (67048) - http://www.bohemiancoding.com/sketch -->
    <title>Clerksy-BLACK</title>
    <desc>Created with Sketch.</desc>
    <g id="Page-1" stroke="none" stroke-width="1" fill="none" fill-rule="evenodd" fill-opacity="0.8">
        <g id="clerksy-logo" transform="translate(-40.000000, -40.000000)" fill="#1A102F">
            <g id="Clerksy-logo" transform="translate(40.000000, 40.000000)">
                <g id="Clerksy-BLACK">
                    <path d="M85.0840541,10.9973659 L90.3631419,22.1241707 L90.4099662,22.2231951 L90.3723649,22.3250488 C90.0793581,23.1158293 89.7778378,23.8238537 89.4678041,24.4441707 C89.1549324,25.069439 88.8314189,25.6098293 88.4965541,26.0639268 C88.156723,26.5272195 87.8261149,26.8787561 87.5047297,27.1164146 C87.1585135,27.3724634 86.8201014,27.5004878 86.4880743,27.5004878 C86.4086149,27.5004878 86.3334122,27.4962439 86.2617568,27.4870488 L86.2610473,27.4870488 C86.1837162,27.476439 86.117027,27.4601707 86.0609797,27.4382439 L86.0616892,27.4382439 C85.985777,27.4078293 85.925473,27.3653902 85.8814865,27.3144634 L85.8814865,27.3137561 C85.820473,27.2423171 85.7913851,27.1609756 85.7913851,27.0732683 C85.7913851,27.0371951 85.8155068,26.9579756 85.86375,26.840561 C85.8985135,26.7570976 85.9460473,26.6453415 86.004223,26.5095366 C86.0595608,26.3758537 86.1014189,26.2414634 86.1290878,26.1070732 C86.1560473,25.9762195 86.169527,25.8404146 86.169527,25.7003659 C86.169527,25.4669512 86.1326351,25.2597073 86.0595608,25.0793415 L86.0595608,25.0786341 C85.9886149,24.9032195 85.8814865,24.7490244 85.7388851,24.6195854 L85.7367568,24.6181707 C85.5927365,24.4844878 85.4224662,24.3840488 85.2266554,24.3168537 C85.0223311,24.2468293 84.7896284,24.2114634 84.5278378,24.2114634 C84.2617905,24.2114634 84.0227027,24.2546098 83.8112838,24.3394878 C83.6027027,24.4236585 83.4161149,24.5509756 83.2536486,24.7207317 C83.090473,24.8926098 82.9663176,25.0927805 82.8840203,25.3205366 L82.8833108,25.3205366 C82.7995946,25.5525366 82.757027,25.8177805 82.757027,26.1148537 C82.757027,26.4805366 82.8194595,26.8051951 82.9429054,27.088122 C83.0656419,27.3689268 83.2508108,27.6150732 83.4977027,27.824439 C83.746723,28.0366341 84.043277,28.1957805 84.3852365,28.3025854 C84.7364189,28.4122195 85.137973,28.4666829 85.5891892,28.4666829 C86.1716554,28.4666829 86.7179392,28.3570488 87.2252027,28.1384878 C87.7360135,27.9185122 88.2134797,27.5860732 88.6561824,27.1425854 C89.1073986,26.6870732 89.5536486,26.086561 89.9906757,25.3417561 C90.43125,24.592 90.8633108,23.6958293 91.2861486,22.6532439 L96.0771284,10.788 C96.372973,10.047439 96.7042905,9.50209756 97.0703716,9.15268293 L97.0725,9.15056098 C97.2626351,8.97231707 97.4797297,8.82731707 97.7223649,8.71485366 C97.8997297,8.63280488 98.0912838,8.56843902 98.2963176,8.5217561 L98.2778716,7.65104878 L93.2094932,7.65104878 L93.2272297,8.49487805 C93.4741216,8.52034146 93.6926351,8.555 93.8820608,8.59956098 C94.1452703,8.66180488 94.3602365,8.74456098 94.52625,8.84782927 C94.7064527,8.961 94.8433784,9.10670732 94.9348986,9.28353659 C95.025,9.45682927 95.0696959,9.65629268 95.0696959,9.87909756 C95.0696959,9.95336585 95.0640203,10.0304634 95.0547973,10.1089756 C95.0455743,10.181122 95.0320946,10.2582195 95.015777,10.3367317 L95.0143581,10.3438049 C94.99875,10.4102927 94.9760473,10.4888049 94.9497973,10.5736829 L94.9497973,10.5743902 C94.9256757,10.6529024 94.8994257,10.7292927 94.8724662,10.8042683 L94.8696284,10.8099268 L92.2382432,17.6383659 L88.7136486,10.0573415 C88.6803041,9.98519512 88.6490878,9.90809756 88.6214189,9.831 C88.5930405,9.7524878 88.5689189,9.67468293 88.5511824,9.60395122 L88.550473,9.60395122 C88.532027,9.53392683 88.5185473,9.4624878 88.5086149,9.39104878 C88.4986824,9.31607317 88.4930068,9.24534146 88.4930068,9.18097561 C88.4930068,9.01121951 88.5405405,8.85843902 88.6334797,8.72687805 C88.7207432,8.60239024 88.8477365,8.50195122 89.0123311,8.42839024 C89.154223,8.36543902 89.3372635,8.31380488 89.5586149,8.27702439 C89.6997973,8.25368293 89.8587162,8.236 90.0367905,8.22326829 L90.0460135,7.38721951 L82.34625,7.38721951 L82.3795946,8.24095122 C82.5683108,8.27419512 82.749223,8.33078049 82.9216216,8.41 L82.9223311,8.41 C83.1621284,8.52034146 83.3841892,8.67382927 83.5863851,8.87046341 C83.799223,9.07770732 84.1163514,9.44834146 84.4235473,9.88546341 C84.6640541,10.2263902 84.901723,10.6125854 85.0840541,10.9973659" id="Fill-1"></path>
                    <path d="M70.9572973,17.4898293 L70.9572973,22.2790732 L71.6490203,22.2790732 C71.6993919,22.1920732 71.7518919,22.1121463 71.8065203,22.037878 C71.8916554,21.9225854 71.9831757,21.8221463 72.0810811,21.7351463 L72.0846284,21.7323171 C72.1896284,21.6424878 72.3003041,21.5731707 72.4138176,21.5279024 L72.4152365,21.5279024 C72.5351351,21.4790976 72.6592905,21.4543415 72.7848649,21.4543415 C72.8302703,21.4543415 73.0026689,21.5031463 73.2985135,21.5986341 C73.5454054,21.6792683 73.9306419,21.8072927 74.4556419,21.9834146 L74.4563514,21.9834146 C74.9508446,22.1524634 75.4403716,22.2790732 75.9235135,22.3632439 C76.4059459,22.4474146 76.8834122,22.4891463 77.3559122,22.4891463 C78.1136149,22.4891463 78.7904392,22.3844634 79.3870946,22.1743902 C79.9780743,21.9671463 80.4945608,21.6552195 80.9358446,21.2400244 C81.3728716,20.8283659 81.7020608,20.344561 81.9212838,19.7907317 L81.9212838,19.7900244 C82.1426351,19.2312439 82.2533108,18.5974878 82.2533108,17.8915854 C82.2533108,17.3229024 82.1625,16.8072683 81.9815878,16.3453902 C81.8013851,15.8870488 81.5303716,15.4768049 81.1685473,15.1160732 L81.1685473,15.1153659 C80.7967905,14.7468537 80.2625676,14.3769268 79.5658784,14.0062927 C78.8578378,13.6285854 77.9823649,13.250878 76.9415878,12.873878 L76.9337838,12.8710488 C76.8876689,12.8519512 76.8096284,12.8222439 76.6954054,12.7805122 L76.6961149,12.7798049 C76.6003378,12.7451463 76.5038514,12.7104878 76.4144595,12.6793659 L76.4123311,12.6779512 C75.3878716,12.3108537 74.6145608,11.9225366 74.094527,11.5158293 C73.5290878,11.0730488 73.2453041,10.5970244 73.2453041,10.0884634 C73.2453041,9.773 73.3127027,9.48512195 73.4475,9.22553659 C73.5815878,8.96736585 73.7816554,8.74102439 74.0462838,8.54863415 C74.3031081,8.3604878 74.5989527,8.21973171 74.9338176,8.12565854 C75.2630068,8.03441463 75.6290878,7.98773171 76.0320608,7.98773171 C76.4953378,7.98773171 76.9408784,8.06482927 77.3637162,8.22043902 C77.7822973,8.37321951 78.1795946,8.60309756 78.5541892,8.91007317 L78.5541892,8.90936585 C78.9259459,9.21209756 79.2686149,9.58626829 79.5829054,10.0297561 C79.8624324,10.4251463 80.1213851,10.8792439 80.3590541,11.3913415 L81.1926689,11.3913415 L81.1926689,7.3744878 L80.4498649,7.3744878 C80.4278716,7.43814634 80.4023311,7.49897561 80.3739527,7.55626829 C80.3122297,7.67792683 80.2341892,7.78402439 80.1398311,7.87102439 L80.1362838,7.87314634 C80.0390878,7.96156098 79.9305405,8.03017073 79.8106419,8.07614634 C79.6900338,8.12212195 79.5609122,8.14687805 79.4218581,8.14687805 C79.3551689,8.14687805 79.1898649,8.10160976 78.9259459,8.01178049 C78.6953716,7.93397561 78.3583784,7.81373171 77.9178041,7.65387805 L77.9163851,7.65387805 C77.4956757,7.49968293 77.0856081,7.38368293 76.6876014,7.30729268 C76.2903041,7.23160976 75.9029392,7.19341463 75.5247973,7.19341463 C74.795473,7.19341463 74.139223,7.29385366 73.5539189,7.49473171 C72.975,7.69278049 72.4641892,7.99126829 72.0221959,8.3894878 L72.0214865,8.3894878 C71.5802027,8.78204878 71.2495946,9.23331707 71.0303716,9.74117073 C70.8090203,10.2511463 70.6990541,10.8212439 70.6990541,11.4514634 C70.6990541,11.9968049 70.7891554,12.4954634 70.9693581,12.9460244 C71.1488514,13.395878 71.4198649,13.804 71.7802703,14.167561 C72.1470608,14.5381951 72.6621284,14.908122 73.325473,15.2780488 C73.9980405,15.6536341 74.8210135,16.0278049 75.7943919,16.3998537 L75.8014865,16.4026829 C75.8724324,16.4316829 75.9433784,16.4606829 75.9994257,16.4819024 C76.0675338,16.5080732 76.1547973,16.5399024 76.265473,16.5788049 L76.2711486,16.5809268 C77.2828378,16.9635854 78.0469257,17.3745366 78.5612838,17.8130732 C79.1146622,18.2841463 79.3913514,18.792 79.3913514,19.3366341 C79.3913514,19.6761463 79.3260811,19.9887805 79.1941216,20.271 C79.0621622,20.5546341 78.8656419,20.8057317 78.6045608,21.0235854 C78.347027,21.2379024 78.0533108,21.399878 77.7234122,21.5073902 C77.3991892,21.6127805 77.0416216,21.6658293 76.6485811,21.6658293 C76.1434459,21.6658293 75.6652703,21.5774146 75.2133446,21.399878 L75.2133446,21.3991707 C74.7642568,21.2223415 74.3442568,20.9585122 73.9540541,20.6069756 C73.5709459,20.2632195 73.194223,19.8154878 72.8245946,19.2666098 C72.4847635,18.7615854 72.1506081,18.1688537 71.8221284,17.4898293 L70.9572973,17.4898293" id="Fill-2"></path>
                    <path d="M59.2086486,20.6564878 C58.9603378,20.3502195 58.8361824,19.7857805 58.8361824,18.9645854 L58.8361824,15.6246341 L59.8450338,14.7496829 L60.0720608,14.5530488 L60.2352365,14.805561 L63.4285135,19.7419268 L63.4661149,19.7999268 L63.4661149,19.8006341 C63.5434459,19.9201707 63.612973,20.0269756 63.65625,20.1337805 C63.6825,20.1988537 63.7030743,20.2653415 63.7165541,20.3318293 C63.7307432,20.4032683 63.7378378,20.4711707 63.7378378,20.5362439 C63.7378378,20.6854878 63.6981081,20.8212927 63.6193581,20.9415366 C63.5448649,21.0554146 63.437027,21.1501951 63.297973,21.2237561 L63.297973,21.2230488 C63.1773649,21.2867073 63.0269595,21.3397561 62.8481757,21.3821951 L62.8474662,21.3814878 C62.7346622,21.4083659 62.6090878,21.4317073 62.4721622,21.4515122 L62.4636486,22.2769512 L69.7228378,22.2769512 L69.7228378,21.431 C69.5930068,21.3970488 69.466723,21.3531951 69.3439865,21.299439 C69.1566892,21.2188049 68.9800338,21.1155366 68.8168581,20.9903415 C68.652973,20.8658537 68.48625,20.7017561 68.3181081,20.5037073 C68.1520946,20.3077805 67.9832432,20.0764878 67.8136824,19.8133659 L62.9652365,12.280439 L63.1447297,12.1333171 L65.9612838,9.81614634 C66.2095946,9.61314634 66.4564865,9.43490244 66.70125,9.28141463 C66.9488514,9.12580488 67.1964527,8.9942439 67.4426351,8.88673171 C67.6916554,8.77921951 67.9555743,8.68868293 68.2336824,8.61582927 C68.4387162,8.56207317 68.6536824,8.51680488 68.8771622,8.48143902 L68.8771622,7.65104878 L61.9989527,7.65104878 L61.9989527,8.47507317 C62.2628716,8.50902439 62.4955743,8.54934146 62.6956419,8.59531707 C62.9638176,8.65756098 63.1809122,8.73182927 63.3455068,8.81953659 L63.3455068,8.81882927 C63.5313851,8.91573171 63.6725676,9.03880488 63.7697635,9.18592683 C63.8705068,9.34012195 63.9208784,9.51482927 63.9208784,9.71217073 C63.9208784,9.80341463 63.9059797,9.90173171 63.8761824,10.0042927 C63.8485135,10.0976585 63.8080743,10.194561 63.7541554,10.2935854 C63.7030743,10.3940244 63.6427703,10.4866829 63.5753716,10.571561 C63.5058446,10.6578537 63.4270946,10.7384878 63.3391216,10.8134634 L58.8361824,14.7701951 L58.8361824,0.606170732 C58.3743243,0.685390244 57.9209797,0.757536585 57.4789865,0.821902439 C56.9440541,0.900414634 56.4233108,0.967609756 55.9181757,1.02278049 C55.4116216,1.07795122 54.9192568,1.12392683 54.4410811,1.16 C54.0537162,1.18970732 53.6656419,1.21304878 53.2768581,1.23143902 L53.2768581,2.02504878 C53.8501014,2.07314634 54.2566216,2.2245122 54.4964189,2.47843902 C54.6425676,2.63121951 54.7504054,2.84412195 54.8178041,3.11431707 C54.8809459,3.364 54.9121622,3.66814634 54.9121622,4.02463415 L54.9121622,18.9645854 C54.9121622,19.3536098 54.8852027,19.6825122 54.8319932,19.9484634 L54.8305743,19.9484634 C54.7723986,20.2391707 54.6801689,20.4640976 54.5545946,20.6218293 L54.5538851,20.6232439 C54.4297297,20.7802683 54.2466892,20.9104146 54.0083108,21.0136829 C53.8415878,21.0858293 53.6450676,21.1452439 53.4201689,21.1919268 L53.4201689,22.0315122 L60.3274662,22.0315122 L60.3274662,21.2018293 C60.1146284,21.1650488 59.9273311,21.114122 59.7655743,21.0483415 C59.5264865,20.951439 59.3406081,20.8212927 59.2086486,20.6564878" id="Fill-3"></path>
                    <path d="M41.2486824,21.1919268 L41.2486824,22.0315122 L48.9023311,22.0315122 L48.9023311,21.2364878 L48.4511149,21.2364878 C48.1446284,21.2364878 47.8778716,21.1940488 47.6515541,21.1077561 L47.6522635,21.1077561 C47.4103378,21.0165122 47.2159459,20.8757561 47.0683784,20.6876098 L47.0690878,20.6869024 C46.9271959,20.5079512 46.8243243,20.268878 46.7583446,19.9703902 C46.6952027,19.6881707 46.6646959,19.3521951 46.6646959,18.9645854 L46.6646959,14.7645366 C46.6646959,13.9242439 46.7271284,13.1497317 46.8527027,12.443122 C46.978277,11.7365122 47.1684122,11.0963902 47.4238176,10.5234634 L47.4231081,10.5234634 C47.6785135,9.94063415 47.9502365,9.49926829 48.2354392,9.20078049 C48.5525676,8.86834146 48.8909797,8.70282927 49.2499662,8.70282927 C49.3521284,8.70282927 49.4471959,8.71697561 49.53375,8.74314634 L49.5344595,8.74314634 C49.6288176,8.77143902 49.7111149,8.816 49.7806419,8.87329268 L49.7919932,8.88390244 C49.8601014,8.94826829 49.9133108,9.02465854 49.9480743,9.11236585 L49.9480743,9.11307317 C49.9814189,9.1972439 49.9991554,9.28707317 49.9991554,9.38256098 L49.9977365,9.38468293 L49.997027,9.46319512 L49.997027,9.46673171 C49.9963176,9.49856098 49.9941892,9.52756098 49.9913514,9.55160976 L49.9920608,9.55160976 C49.9885135,9.58202439 49.9821284,9.61173171 49.9757432,9.63790244 C49.9729054,9.65134146 49.9672297,9.66831707 49.9608446,9.686 L49.8246284,10.2801463 L49.8232095,10.2850976 C49.8139865,10.324 49.805473,10.3565366 49.8005068,10.3827073 C49.7927027,10.4187805 49.787027,10.4477805 49.7841892,10.4661707 L49.7841892,10.4682927 C49.7820608,10.4838537 49.779223,10.5057805 49.7770946,10.5312439 L49.7756757,10.5326585 C49.7749662,10.5446829 49.7742568,10.5623659 49.7742568,10.5842927 C49.7742568,10.7681951 49.8111486,10.9372439 49.884223,11.0893171 C49.9580068,11.2442195 50.0708108,11.3863902 50.2197973,11.5144146 L50.2205068,11.5144146 C50.3758784,11.6438537 50.5504054,11.7421707 50.7433784,11.8072439 C50.9391892,11.8730244 51.1591216,11.9062683 51.4010473,11.9062683 C51.7125,11.9062683 51.9906081,11.8595854 52.2360811,11.7669268 C52.4772973,11.6756829 52.6915541,11.5377561 52.8781419,11.3559756 C53.0640203,11.1749024 53.2030743,10.9655366 53.2945946,10.7285854 C53.3882432,10.4880976 53.4350676,10.2122439 53.4350676,9.90243902 C53.4350676,9.541 53.3712162,9.21280488 53.2449324,8.91785366 L53.244223,8.91856098 C53.1179392,8.62431707 52.9270946,8.3604878 52.674527,8.12990244 L52.6731081,8.12990244 C52.4162838,7.89365854 52.1246959,7.71682927 51.7997635,7.60012195 C51.4698649,7.48129268 51.0988176,7.42187805 50.68875,7.42187805 C50.2793919,7.42187805 49.8934459,7.48412195 49.5316216,7.60719512 C49.1712162,7.73026829 48.8299662,7.91629268 48.5114189,8.16314634 L48.5107095,8.16243902 C48.1907432,8.4142439 47.8878041,8.73395122 47.6033108,9.12085366 C47.3145608,9.51341463 47.0456757,9.97317073 46.7980743,10.4987073 L46.3007432,11.5540244 L46.3007432,7.22170732 C45.9793581,7.25565854 45.6423649,7.28890244 45.2890541,7.32214634 C44.8222297,7.366 44.3660473,7.40631707 43.9290203,7.44026829 C43.4770946,7.47704878 42.9889865,7.51312195 42.4703716,7.5484878 C42.0510811,7.57678049 41.6034122,7.60578049 41.1344595,7.63478049 L41.1344595,8.48709756 C41.3785135,8.50336585 41.5878041,8.5344878 41.7623311,8.57834146 C42.0241216,8.64482927 42.2227703,8.74456098 42.3596959,8.87753659 L42.3604054,8.8782439 C42.6136824,9.12509756 42.7406757,9.64992683 42.7406757,10.4456585 L42.7406757,18.9645854 C42.7406757,19.3536098 42.7137162,19.6818049 42.6597973,19.9484634 L42.6590878,19.9484634 C42.6009122,20.2384634 42.5086824,20.4640976 42.3831081,20.6218293 L42.3823986,20.6232439 C42.2582432,20.7802683 42.0744932,20.9104146 41.8361149,21.0136829 C41.6701014,21.0858293 41.4735811,21.1452439 41.2486824,21.1919268" id="Fill-4"></path>
                    <path d="M31.9157432,14.3373171 L40.6910473,14.3373171 C40.6853716,13.2586585 40.5335473,12.2903415 40.2362838,11.4323659 C39.9340541,10.5637805 39.4814189,9.80270732 38.87625,9.14914634 C38.2760473,8.49770732 37.5786486,8.00895122 36.7876014,7.68358537 C35.9930068,7.3575122 35.0983784,7.19341463 34.1051351,7.19341463 C33.0643581,7.19341463 32.1221959,7.3702439 31.2793581,7.72390244 C30.4393581,8.07614634 29.6915878,8.60663415 29.0374662,9.31607317 C28.3826351,10.0240976 27.8916892,10.8382195 27.5639189,11.7577317 C27.2354392,12.6821951 27.0708446,13.717 27.0708446,14.8600244 C27.0708446,15.4485122 27.1190878,16.0108293 27.2162838,16.5448537 C27.3127703,17.0774634 27.4589189,17.5902683 27.6547297,18.082561 C27.8491216,18.5720244 28.0867905,19.0282439 28.3677365,19.4505122 C28.6486824,19.8734878 28.9743243,20.2646341 29.3432432,20.6225366 C29.6575338,20.9217317 29.994527,21.1869756 30.3535135,21.417561 C30.7139189,21.6481463 31.097027,21.8447805 31.5014189,22.0081707 C32.3052365,22.3285854 33.1764527,22.4891463 34.1051351,22.4891463 C34.9054054,22.4891463 35.6389865,22.4000244 36.3058784,22.2224878 C36.9706419,22.0449512 37.5708446,21.7797073 38.1079054,21.4267561 C38.6435473,21.0752195 39.1167568,20.634561 39.5268243,20.1054878 C39.8900676,19.6372439 40.2043581,19.097561 40.4675676,18.4892683 L39.5956419,18.1801707 C39.3437838,18.6462927 39.0720608,19.0643171 38.7811824,19.4328293 C38.4463176,19.8579268 38.0830743,20.2207805 37.6928716,20.5192683 C37.2991216,20.824122 36.8876351,21.0532927 36.4598311,21.2060732 C36.0277703,21.3602683 35.5822297,21.4373659 35.1239189,21.4373659 C34.5258446,21.4373659 34.0022635,21.3157073 33.5538851,21.0716829 C33.1033784,20.8269512 32.73375,20.460561 32.4464189,19.9732195 C32.1697297,19.5028537 31.963277,18.905878 31.8270608,18.1837073 C31.692973,17.4742683 31.6255743,16.6424634 31.6255743,15.6897073 C31.6255743,15.5949268 31.6269932,15.4527561 31.6291216,15.3028049 L31.6291216,15.3013902 C31.63125,15.1860976 31.6333784,15.0913171 31.6362162,15.0149268 L31.6362162,15.0142195 L31.6433108,14.7928293 L31.6433108,14.7914146 C31.6468581,14.7079512 31.6511149,14.6343902 31.6546622,14.5785122 L31.6731081,14.3373171 L31.9157432,14.3373171 Z M36.2186149,13.543 L31.6198986,13.543 L31.6262838,13.2763415 C31.6504054,12.3080244 31.71,11.4910732 31.8029392,10.8261951 C31.8987162,10.1429268 32.0328041,9.60960976 32.2030743,9.2262439 L32.2023649,9.22553659 C32.3825676,8.8202439 32.6301689,8.51185366 32.9423311,8.30319512 C33.2573311,8.09312195 33.6305068,7.98773171 34.0625676,7.98773171 C34.5010135,7.98773171 34.8812838,8.09453659 35.2019595,8.30602439 C35.5212162,8.51680488 35.7744932,8.82802439 35.9596622,9.23756098 C36.1348986,9.62446341 36.2661486,10.1386829 36.3527027,10.7780976 C36.4371284,11.4047805 36.4804054,12.151 36.4804054,13.0153415 L36.4804054,13.543 L36.2186149,13.543 Z" id="Fill-5" fill-rule="nonzero"></path>
                    <path d="M20.9375676,3.09521951 C21,3.3434878 21.0319257,3.6455122 21.0319257,4.002 L21.0319257,18.9645854 C21.0319257,19.3486585 21.0042568,19.675439 20.9503378,19.9435122 C20.8914527,20.2342195 20.799223,20.4598537 20.6736486,20.6175854 C20.5473649,20.7767317 20.3643243,20.909 20.1266554,21.0129756 C19.9613514,21.085122 19.7648311,21.1452439 19.5406419,21.1926341 L19.5406419,22.0315122 L26.5337838,22.0315122 L26.5337838,21.1919268 C26.3067568,21.1445366 26.1088176,21.0837073 25.9406757,21.0101463 C25.7015878,20.9054634 25.5157095,20.7710732 25.3858784,20.6090976 L25.3865878,20.6083902 C25.2553378,20.445 25.1595608,20.2186585 25.0985473,19.9329024 C25.0417905,19.6669512 25.0134122,19.3437073 25.0134122,18.9645854 L25.0134122,0.586365854 C24.5253041,0.667 24.054223,0.739853659 23.6015878,0.804219512 C23.0517568,0.882731707 22.5253378,0.949926829 22.0230405,1.00509756 L22.0223311,1.00509756 C21.5143581,1.06097561 21.0234122,1.10695122 20.5502027,1.14231707 C20.1656757,1.17202439 19.7811486,1.19536585 19.3966216,1.21446341 L19.3966216,2.00736585 C19.6300338,2.02646341 19.8336486,2.06253659 20.0074662,2.11417073 C20.2678378,2.19197561 20.4707432,2.30797561 20.615473,2.46004878 C20.7609122,2.61282927 20.86875,2.82431707 20.9375676,3.09521951" id="Fill-6"></path>
                    <path d="M16.9362162,8.78134146 L17.9954392,8.74243902 L17.6683784,1.21517073 L16.5878716,1.21517073 C16.5602027,1.36865854 16.5268581,1.508 16.4871284,1.6324878 C16.423277,1.82912195 16.3438176,1.99392683 16.2480405,2.12973171 L16.2466216,2.13043902 C16.1423311,2.27685366 16.0181757,2.38931707 15.8762838,2.46570732 C15.7308446,2.54421951 15.5705068,2.58312195 15.3981081,2.58312195 C15.2363514,2.58312195 15.0298986,2.54987805 14.7808784,2.48197561 L14.7808784,2.48339024 C14.5531419,2.42185366 14.2828378,2.3284878 13.9692568,2.20258537 L13.9692568,2.20329268 C13.8053716,2.13892683 13.6563851,2.08092683 13.4939189,2.01939024 L13.4939189,2.01868293 C13.3498986,1.96492683 13.2271622,1.91965854 13.1313851,1.88782927 L13.1271284,1.88641463 C12.7504054,1.75556098 12.4041892,1.6445122 12.092027,1.55468293 C11.7805743,1.46485366 11.4989189,1.39341463 11.2491892,1.34319512 L11.2463514,1.34319512 C10.9973311,1.29014634 10.7554054,1.2512439 10.5219932,1.22578049 L10.5212838,1.22578049 C10.2857432,1.19960976 10.0523311,1.18687805 9.82317568,1.18687805 C9.20736486,1.18687805 8.61,1.2427561 8.03179054,1.3545122 C7.45216216,1.46626829 6.88956081,1.63390244 6.34540541,1.85741463 C5.7977027,2.08163415 5.27412162,2.35960976 4.77608108,2.6885122 C4.27733108,3.01812195 3.8027027,3.40078049 3.35361486,3.83436585 C2.84280405,4.33019512 2.39584459,4.86846341 2.01131757,5.45058537 C1.62608108,6.03341463 1.30185811,6.66221951 1.03864865,7.33629268 C0.515777027,8.68656098 0.253277027,10.1910244 0.253277027,11.8426098 C0.253277027,12.9325854 0.366081081,13.9581951 0.592398649,14.9173171 C0.816587838,15.8729024 1.15429054,16.7648293 1.60408784,17.5923902 C2.0510473,18.4213659 2.59378378,19.1548537 3.22945946,19.793561 C3.86584459,20.4329756 4.59871622,20.9797317 5.42523649,21.4345366 L5.42807432,21.4366585 C5.74165541,21.6141951 6.07652027,21.7698049 6.43125,21.9034878 C6.79023649,22.0392927 7.17121622,22.1517561 7.57135135,22.243 L7.57135135,22.2437073 C7.97361486,22.3342439 8.39290541,22.4028537 8.82922297,22.4495366 C9.25773649,22.4948049 9.70753378,22.517439 10.1764865,22.517439 C11.2385473,22.517439 12.2069595,22.3809268 13.0810135,22.1093171 C13.9522297,21.8377073 14.7333446,21.4317073 15.4236486,20.8906098 C16.1139527,20.3495122 16.7035135,19.6825122 17.1909122,18.8903171 C17.6435473,18.1547073 18.0103378,17.3080488 18.2898649,16.3517561 L17.1277703,16.0044634 C16.8297973,16.804439 16.4956419,17.5145854 16.1260135,18.1349024 C15.7173649,18.821 15.2626014,19.3995854 14.7638514,19.8692439 L14.7631419,19.8692439 C14.2565878,20.3417317 13.7124324,20.6975122 13.1306757,20.9351707 L13.1292568,20.9351707 C12.5425338,21.1742439 11.9203378,21.2944878 11.2619595,21.2944878 C10.8717568,21.2944878 10.4936149,21.2555854 10.1310811,21.1770732 C9.7685473,21.098561 9.41807432,20.9797317 9.08179054,20.8212927 L9.08179054,20.822 C8.74621622,20.6656829 8.43263514,20.4725854 8.14033784,20.2434146 C7.8522973,20.0177805 7.58554054,19.7546585 7.33935811,19.4575854 L7.33935811,19.4582927 C7.00804054,19.0706829 6.72496622,18.6399268 6.49084459,18.1681463 C6.25601351,17.6956585 6.06942568,17.1821463 5.93108108,16.6297317 L5.93108108,16.6276098 C5.79557432,16.0751951 5.69341216,15.4089024 5.62601351,14.6301463 C5.55932432,13.8577561 5.52597973,12.9714878 5.52597973,11.9713415 C5.52597973,10.4407073 5.63310811,9.09256098 5.84807432,7.92902439 C6.06375,6.75841463 6.39010135,5.77312195 6.82570946,4.97739024 C7.27125,4.16397561 7.82817568,3.55214634 8.49648649,3.14260976 C9.16763514,2.73095122 9.94591216,2.52441463 10.832027,2.52441463 C11.5492905,2.52441463 12.2197297,2.66304878 12.8426351,2.94173171 C13.4634122,3.21829268 14.034527,3.6334878 14.5552703,4.18519512 L14.5545608,4.18590244 C15.0703378,4.72982927 15.5329054,5.40319512 15.9394257,6.20529268 C16.3175676,6.9515122 16.6503041,7.81090244 16.9362162,8.78134146" id="Fill-7"></path>
                    <path d="M102.042264,6.44790244 C102.487804,6.44790244 102.829764,6.52712195 103.066723,6.68485366 C103.303682,6.84329268 103.422872,7.08943902 103.422872,7.42258537 C103.422872,7.63053659 103.374628,7.79958537 103.278851,7.92902439 C103.183074,8.05846341 103.045439,8.16102439 102.865236,8.23458537 C102.925541,8.30885366 102.987973,8.39373171 103.053953,8.48921951 C103.119932,8.58470732 103.184493,8.68443902 103.249054,8.78841463 C103.313615,8.89239024 103.375338,9.00060976 103.435642,9.11307317 C103.495946,9.2262439 103.551284,9.33658537 103.603074,9.44480488 L102.855304,9.44480488 C102.799966,9.34790244 102.745338,9.24958537 102.689291,9.14985366 C102.633243,9.05012195 102.575777,8.95321951 102.517601,8.85914634 C102.458716,8.76507317 102.399831,8.67595122 102.343074,8.59178049 C102.285608,8.50760976 102.228142,8.43121951 102.170676,8.36331707 L101.840068,8.36331707 L101.840068,9.44480488 L101.171757,9.44480488 L101.171757,6.525 C101.317196,6.496 101.468311,6.47619512 101.623682,6.46487805 C101.779764,6.45356098 101.918818,6.44790244 102.042264,6.44790244 Z M102.080574,7.01658537 C102.032331,7.01658537 101.988345,7.018 101.950034,7.02082927 C101.911014,7.02365854 101.874831,7.0264878 101.840068,7.02931707 L101.840068,7.83282927 L102.029493,7.83282927 C102.280642,7.83282927 102.460845,7.80170732 102.569392,7.7387561 C102.677939,7.6765122 102.732568,7.56970732 102.732568,7.41834146 C102.732568,7.27334146 102.67723,7.16936585 102.567264,7.10853659 C102.457297,7.047 102.294831,7.01658537 102.080574,7.01658537 Z" id="Fill-8" fill-rule="nonzero"></path>
                    <path d="M102.201182,5.24263415 C102.969527,5.24263415 103.665507,5.55314634 104.168514,6.05463415 C104.67223,6.55682927 104.983682,7.25070732 104.983682,8.01602439 C104.983682,8.78204878 104.67223,9.47592683 104.168514,9.97741463 C103.665507,10.4796098 102.969527,10.790122 102.201182,10.790122 C101.433547,10.790122 100.737568,10.4796098 100.233851,9.97741463 C99.7308446,9.47592683 99.4193919,8.78204878 99.4193919,8.01602439 C99.4193919,7.25070732 99.7308446,6.55682927 100.233851,6.05463415 C100.737568,5.55314634 101.433547,5.24263415 102.201182,5.24263415 Z M103.739291,6.48326829 C103.345541,6.09070732 102.802095,5.84809756 102.201182,5.84809756 C101.60098,5.84809756 101.057534,6.09070732 100.663784,6.48326829 C100.270034,6.87512195 100.026689,7.41763415 100.026689,8.01602439 C100.026689,8.61512195 100.270034,9.15692683 100.663784,9.5494878 C101.057534,9.94134146 101.60098,10.1839512 102.201182,10.1839512 C102.802095,10.1839512 103.345541,9.94134146 103.739291,9.5494878 C104.132331,9.15692683 104.375676,8.61512195 104.375676,8.01602439 C104.375676,7.41763415 104.132331,6.87512195 103.739291,6.48326829 Z" id="Fill-9" fill-rule="nonzero"></path>
                </g>
            </g>
        </g>
    </g>
</svg>